<?xml version="1.0" encoding="UTF-8" standalone="no"?>
<!-- Created with Inkscape (http://www.inkscape.org/) -->
<svg
   xmlns:dc="http://purl.org/dc/elements/1.1/"
   xmlns:cc="http://web.resource.org/cc/"
   xmlns:rdf="http://www.w3.org/1999/02/22-rdf-syntax-ns#"
   xmlns:svg="http://www.w3.org/2000/svg"
   xmlns="http://www.w3.org/2000/svg"
   xmlns:xlink="http://www.w3.org/1999/xlink"
   xmlns:sodipodi="http://inkscape.sourceforge.net/DTD/sodipodi-0.dtd"
   xmlns:inkscape="http://www.inkscape.org/namespaces/inkscape"
   width="48px"
   height="48px"
   id="svg1306"
   sodipodi:version="0.32"
   inkscape:version="0.43"
   sodipodi:docbase="/home/drew/Desktop/new projects/gimmie logo"
   sodipodi:docname="gimmie.svg">
  <defs
     id="defs1308">
    <linearGradient
       id="linearGradient3481">
      <stop
         style="stop-color:#888a85;stop-opacity:1;"
         offset="0"
         id="stop3483" />
      <stop
         id="stop3489"
         offset="0.60000002"
         style="stop-color:#888a85;stop-opacity:1;" />
      <stop
         style="stop-color:#888a85;stop-opacity:0;"
         offset="1"
         id="stop3485" />
    </linearGradient>
    <linearGradient
       id="linearGradient3473">
      <stop
         style="stop-color:#ffadbc;stop-opacity:1;"
         offset="0"
         id="stop3475" />
      <stop
         id="stop3503"
         offset="0.60000002"
         style="stop-color:#ffadbc;stop-opacity:1;" />
      <stop
         style="stop-color:#ffadbc;stop-opacity:0;"
         offset="1"
         id="stop3477" />
    </linearGradient>
    <linearGradient
       id="linearGradient3465">
      <stop
         style="stop-color:#6ce96c;stop-opacity:1;"
         offset="0"
         id="stop3467" />
      <stop
         id="stop3501"
         offset="0.60000002"
         style="stop-color:#6ce96c;stop-opacity:1;" />
      <stop
         style="stop-color:#6ce96c;stop-opacity:0;"
         offset="1"
         id="stop3469" />
    </linearGradient>
    <linearGradient
       id="linearGradient3457">
      <stop
         style="stop-color:#92cbde;stop-opacity:1;"
         offset="0"
         id="stop3459" />
      <stop
         id="stop3493"
         offset="0.60000002"
         style="stop-color:#92ccde;stop-opacity:1;" />
      <stop
         style="stop-color:#92ccde;stop-opacity:0;"
         offset="1"
         id="stop3461" />
    </linearGradient>
    <linearGradient
       id="linearGradient3433">
      <stop
         style="stop-color:#ffffff;stop-opacity:1;"
         offset="0"
         id="stop3435" />
      <stop
         id="stop3497"
         offset="0.60000002"
         style="stop-color:#ffffff;stop-opacity:1;" />
      <stop
         style="stop-color:#ffffff;stop-opacity:0;"
         offset="1"
         id="stop3437" />
    </linearGradient>
    <linearGradient
       inkscape:collect="always"
       id="linearGradient6513">
      <stop
         style="stop-color:#ffffff;stop-opacity:1;"
         offset="0"
         id="stop6515" />
      <stop
         style="stop-color:#ffffff;stop-opacity:0;"
         offset="1"
         id="stop6517" />
    </linearGradient>
    <linearGradient
       id="linearGradient6470">
      <stop
         style="stop-color:#ffffff;stop-opacity:1;"
         offset="0"
         id="stop6472" />
      <stop
         style="stop-color:#c4c5c2;stop-opacity:1;"
         offset="1"
         id="stop6474" />
    </linearGradient>
    <linearGradient
       inkscape:collect="always"
       xlink:href="#linearGradient6470"
       id="linearGradient4674"
       gradientUnits="userSpaceOnUse"
       x1="7"
       y1="34.5"
       x2="45"
       y2="34.5" />
    <linearGradient
       inkscape:collect="always"
       xlink:href="#linearGradient6513"
       id="linearGradient4731"
       gradientUnits="userSpaceOnUse"
       x1="286.51172"
       y1="-441.29074"
       x2="289.85379"
       y2="-436.14453" />
    <linearGradient
       inkscape:collect="always"
       xlink:href="#linearGradient6513"
       id="linearGradient4735"
       gradientUnits="userSpaceOnUse"
       x1="286.51172"
       y1="-441.29074"
       x2="289.85379"
       y2="-436.14453" />
    <linearGradient
       inkscape:collect="always"
       xlink:href="#linearGradient6513"
       id="linearGradient4739"
       gradientUnits="userSpaceOnUse"
       x1="286.51172"
       y1="-441.29074"
       x2="289.85379"
       y2="-436.14453" />
    <linearGradient
       inkscape:collect="always"
       xlink:href="#linearGradient6513"
       id="linearGradient4743"
       gradientUnits="userSpaceOnUse"
       x1="286.51172"
       y1="-441.29074"
       x2="289.85379"
       y2="-436.14453" />
    <linearGradient
       inkscape:collect="always"
       xlink:href="#linearGradient6513"
       id="linearGradient4747"
       gradientUnits="userSpaceOnUse"
       x1="286.51172"
       y1="-441.29074"
       x2="289.85379"
       y2="-436.14453" />
    <linearGradient
       inkscape:collect="always"
       xlink:href="#linearGradient6513"
       id="linearGradient4751"
       gradientUnits="userSpaceOnUse"
       x1="286.51172"
       y1="-441.29074"
       x2="289.85379"
       y2="-436.14453" />
    <linearGradient
       inkscape:collect="always"
       xlink:href="#linearGradient6513"
       id="linearGradient4755"
       gradientUnits="userSpaceOnUse"
       x1="286.51172"
       y1="-441.29074"
       x2="289.85379"
       y2="-436.14453" />
    <linearGradient
       inkscape:collect="always"
       xlink:href="#linearGradient6513"
       id="linearGradient4759"
       gradientUnits="userSpaceOnUse"
       x1="286.51172"
       y1="-441.29074"
       x2="289.85379"
       y2="-436.14453" />
    <linearGradient
       inkscape:collect="always"
       xlink:href="#linearGradient6513"
       id="linearGradient4763"
       gradientUnits="userSpaceOnUse"
       x1="286.51172"
       y1="-441.29074"
       x2="289.85379"
       y2="-436.14453" />
    <linearGradient
       inkscape:collect="always"
       xlink:href="#linearGradient3481"
       id="linearGradient1498"
       gradientUnits="userSpaceOnUse"
       x1="7.875"
       y1="17.0625"
       x2="42.550507"
       y2="17.0625" />
    <linearGradient
       inkscape:collect="always"
       xlink:href="#linearGradient3473"
       id="linearGradient1508"
       gradientUnits="userSpaceOnUse"
       x1="14.884104"
       y1="20.057948"
       x2="42.580894"
       y2="20.057947" />
    <linearGradient
       inkscape:collect="always"
       xlink:href="#linearGradient3433"
       id="linearGradient1515"
       gradientUnits="userSpaceOnUse"
       x1="8.875"
       y1="17.0625"
       x2="42.492496"
       y2="17.0625" />
    <linearGradient
       inkscape:collect="always"
       xlink:href="#linearGradient3457"
       id="linearGradient1518"
       gradientUnits="userSpaceOnUse"
       x1="8.884104"
       y1="17.057948"
       x2="42.497837"
       y2="17.057947" />
    <linearGradient
       inkscape:collect="always"
       xlink:href="#linearGradient3433"
       id="linearGradient1525"
       gradientUnits="userSpaceOnUse"
       x1="11.875"
       y1="18.5625"
       x2="42.580891"
       y2="18.5625" />
    <linearGradient
       inkscape:collect="always"
       xlink:href="#linearGradient3465"
       id="linearGradient1528"
       gradientUnits="userSpaceOnUse"
       x1="11.884104"
       y1="18.557948"
       x2="42.586117"
       y2="18.557947" />
    <linearGradient
       inkscape:collect="always"
       xlink:href="#linearGradient3433"
       id="linearGradient2554"
       x1="14.875"
       y1="20.0625"
       x2="42.580891"
       y2="20.0625"
       gradientUnits="userSpaceOnUse" />
  </defs>
  <sodipodi:namedview
     id="base"
     pagecolor="#ffffff"
     bordercolor="#666666"
     borderopacity="1.0"
     inkscape:pageopacity="0.0"
     inkscape:pageshadow="2"
     inkscape:zoom="1"
     inkscape:cx="24"
     inkscape:cy="24"
     inkscape:current-layer="layer1"
     showgrid="false"
     inkscape:grid-bbox="true"
     inkscape:document-units="px"
     inkscape:window-width="1014"
     inkscape:window-height="718"
     inkscape:window-x="0"
     inkscape:window-y="0"
     inkscape:showpageshadow="false"
     showguides="true"
     inkscape:guide-bbox="true" />
  <metadata
     id="metadata1311">
    <rdf:RDF>
      <cc:Work
         rdf:about="">
        <dc:format>image/svg+xml</dc:format>
        <dc:type
           rdf:resource="http://purl.org/dc/dcmitype/StillImage" />
        <dc:title>gimmie</dc:title>
        <dc:date>May 2006</dc:date>
        <dc:creator>
          <cc:Agent>
            <dc:title>Drew Kerr</dc:title>
          </cc:Agent>
        </dc:creator>
        <dc:publisher>
          <cc:Agent>
            <dc:title>http://www.beatniksoftware.com/gimmie/</dc:title>
          </cc:Agent>
        </dc:publisher>
        <dc:source></dc:source>
        <dc:subject>
          <rdf:Bag>
            <rdf:li>gimmie</rdf:li>
            <rdf:li>panel</rdf:li>
          </rdf:Bag>
        </dc:subject>
        <cc:license
           rdf:resource="http://creativecommons.org/licenses/by-sa/2.0/" />
      </cc:Work>
      <cc:License
         rdf:about="http://creativecommons.org/licenses/by-sa/2.0/">
        <cc:permits
           rdf:resource="http://web.resource.org/cc/Reproduction" />
        <cc:permits
           rdf:resource="http://web.resource.org/cc/Distribution" />
        <cc:requires
           rdf:resource="http://web.resource.org/cc/Notice" />
        <cc:requires
           rdf:resource="http://web.resource.org/cc/Attribution" />
        <cc:permits
           rdf:resource="http://web.resource.org/cc/DerivativeWorks" />
        <cc:requires
           rdf:resource="http://web.resource.org/cc/ShareAlike" />
      </cc:License>
    </rdf:RDF>
  </metadata>
  <g
     id="layer1"
     inkscape:label="Layer 1"
     inkscape:groupmode="layer">
    <g
       id="g4311">
      <g
         id="g4302">
        <path
           style="color:#000000;fill:none;fill-opacity:1;fill-rule:nonzero;stroke:url(#linearGradient1498);stroke-width:1;stroke-linecap:square;stroke-linejoin:miter;marker:none;marker-start:none;marker-mid:none;marker-end:none;stroke-miterlimit:4;stroke-opacity:1"
           d="M 42.934485,2.5 L 32.65625,2.5 C 19.322729,2.4999999 8.3750033,13.44773 8.375,26.78125 L 8.375,31.125 C 8.3750276,31.401131 8.5988691,31.624972 8.875,31.625 L 11.875,31.625 L 14.875,31.625 L 17.875,31.625 C 18.151131,31.624972 18.374972,31.401131 18.375,31.125 L 18.375,26.78125 C 18.375002,18.882896 24.757896,12.5 32.65625,12.5 L 42.934485,12.5"
           id="path1663"
           sodipodi:nodetypes="cccccccccccc" />
        <path
           style="color:#000000;fill:url(#linearGradient1528);fill-opacity:1;fill-rule:nonzero;stroke:none;stroke-width:3;stroke-linecap:square;stroke-linejoin:round;marker:none;marker-start:none;marker-mid:none;marker-end:none;stroke-miterlimit:4;stroke-opacity:1"
           d="M 14.884104,31.115896 L 11.884104,31.115896 L 11.884104,26.78125 C 11.884106,15.356121 21.240225,5.9999999 32.665354,6 L 42.934485,6 L 42.934485,9 L 32.665354,9 C 22.875653,8.9999999 14.884106,16.991549 14.884104,26.78125 L 14.884104,31.115896 z "
           id="path2544"
           sodipodi:nodetypes="ccccccccc" />
        <path
           style="opacity:0.4;color:#000000;fill:none;fill-opacity:1;fill-rule:nonzero;stroke:url(#linearGradient1525);stroke-width:1;stroke-linecap:square;stroke-linejoin:miter;marker:none;marker-start:none;marker-mid:none;marker-end:none;stroke-miterlimit:4;stroke-opacity:1"
           d="M 42.964872,6.5 L 32.65625,6.5 C 21.50409,6.4999999 12.375002,15.62909 12.375,26.78125 L 12.375,30.625 L 14.375,30.625 L 14.375,26.78125 C 14.375002,16.719442 22.59444,8.4999999 32.65625,8.5 L 42.964872,8.5"
           id="path2523"
           sodipodi:nodetypes="cccccccc" />
        <path
           style="color:#000000;fill:url(#linearGradient1518);fill-opacity:1;fill-rule:nonzero;stroke:none;stroke-width:3;stroke-linecap:square;stroke-linejoin:round;marker:none;marker-start:none;marker-mid:none;marker-end:none;stroke-miterlimit:4;stroke-opacity:1"
           d="M 11.884104,31.115896 L 8.884104,31.115896 L 8.884104,26.78125 C 8.884107,13.721377 19.60548,2.9999999 32.665354,3 L 42.934485,3 L 42.934485,6 L 32.665354,6 C 21.246378,5.9999999 11.884106,15.362275 11.884104,26.78125 L 11.884104,31.115896 z "
           id="path2546"
           sodipodi:nodetypes="ccccccccc" />
        <path
           style="opacity:0.4;color:#000000;fill:none;fill-opacity:1;fill-rule:nonzero;stroke:url(#linearGradient1515);stroke-width:1;stroke-linecap:square;stroke-linejoin:miter;marker:none;marker-start:none;marker-mid:none;marker-end:none;stroke-miterlimit:4;stroke-opacity:1"
           d="M 42.964872,3.5 L 32.65625,3.5 C 19.870023,3.4999999 9.3750031,13.995024 9.375,26.78125 L 9.375,30.625 L 11.375,30.625 L 11.375,26.78125 C 11.375002,15.088979 20.963976,5.4999999 32.65625,5.5 L 42.964872,5.5"
           id="path2521"
           sodipodi:nodetypes="cccccccc" />
        <path
           style="color:#000000;fill:url(#linearGradient1508);fill-opacity:1;fill-rule:nonzero;stroke:none;stroke-width:3;stroke-linecap:square;stroke-linejoin:round;marker:none;marker-start:none;marker-mid:none;marker-end:none;stroke-miterlimit:4;stroke-opacity:1"
           d="M 32.665354,9 C 22.873944,8.9999999 14.884106,16.98984 14.884104,26.78125 L 14.884104,31.115896 L 17.884104,31.115896 L 17.884104,26.78125 C 17.884106,18.613028 24.497132,12 32.665354,12 L 42.934485,12 L 42.934485,9 L 32.665354,9 z "
           id="path1666"
           sodipodi:nodetypes="ccccccccc" />
        <path
           style="opacity:0.4;color:#000000;fill:none;fill-opacity:1;fill-rule:nonzero;stroke:url(#linearGradient2554);stroke-width:1;stroke-linecap:square;stroke-linejoin:miter;marker:none;marker-start:none;marker-mid:none;marker-end:none;stroke-miterlimit:4;stroke-opacity:1"
           d="M 42.964872,9.5 L 32.65625,9.5 C 23.13684,9.4999999 15.375002,17.261841 15.375,26.78125 L 15.375,30.625 L 17.375,30.625 L 17.375,26.78125 C 17.375002,18.34316 24.21816,11.5 32.65625,11.5 L 42.964872,11.5"
           id="path2525"
           sodipodi:nodetypes="cccccccc" />
      </g>
      <g
         id="g1393">
        <path
           transform="translate(-1.404465,1.595535)"
           d="M 18,24.5 C 16.771036,24.5 15.630267,24.994733 14.8125,25.8125 C 14.308081,26.316919 13.968849,26.961686 13.75,27.65625 C 13.495451,27.620783 13.26159,27.5 13,27.5 C 11.476163,27.5 10.087432,28.131318 9.09375,29.125 C 8.100067,30.118682 7.5000003,31.50447 7.5,33 C 7.5,33.751276 7.6554631,34.489808 7.9375,35.15625 C 8.5697195,36.650161 9.9396188,37.557561 11.5,38.03125 C 11.504767,38.931006 11.714666,39.783174 12.03125,40.53125 C 12.354571,41.295245 12.808228,41.995728 13.40625,42.59375 C 14.004272,43.191772 14.704755,43.645429 15.46875,43.96875 C 16.225778,44.289123 17.088083,44.5 18,44.5 L 26.5,44.5 L 36,44.5 C 38.05696,44.5 39.951734,43.673266 41.3125,42.3125 C 41.992883,41.632117 42.528207,40.830799 42.90625,39.9375 C 43.289535,39.031811 43.5,38.027273 43.5,37 C 43.5,36.469362 43.353521,36.144818 43.25,35.75 C 43.925211,35.030031 44.5,34.160216 44.5,33 C 44.5,30.973345 43.10703,29.304669 41.25,28.75 C 41.179617,28.450467 41.18113,28.124067 41.0625,27.84375 C 40.765225,27.1413 40.33369,26.58369 39.875,26.125 C 38.896578,25.14658 37.523837,24.5 36,24.5 C 35.248725,24.5 34.510192,24.655463 33.84375,24.9375 C 33.162887,25.225639 32.582961,25.635789 32.09375,26.125 C 31.95347,26.26528 31.899864,26.442855 31.78125,26.59375 C 31.625341,26.564738 31.695236,26.5 31.5,26.5 C 29.308403,26.5 27.5,28.308403 27.5,30.5 C 27.5,31.381671 27.834035,32.189165 28.34375,32.875 C 27.754724,32.6841 27.146652,32.500001 26.5,32.5 C 26.036094,32.5 25.602151,32.679737 25.15625,32.78125 C 25.095899,32.578023 25.113948,32.351662 25.03125,32.15625 C 24.726377,31.435846 24.294634,30.794634 23.75,30.25 C 23.346027,29.846027 22.910156,29.523397 22.4375,29.28125 C 22.449702,29.172322 22.5,29.121198 22.5,29 C 22.5,26.532408 20.467595,24.499999 18,24.5 z "
           id="path1380"
           style="opacity:0.4;fill:none;fill-opacity:1;stroke:#888a85;stroke-width:1;stroke-linecap:butt;stroke-linejoin:miter;stroke-miterlimit:10;stroke-dasharray:none;stroke-dashoffset:0;stroke-opacity:1"
           inkscape:original="M 18 26 C 17.171994 26 16.418004 26.331996 15.875 26.875 C 15.331996 27.418004 15 28.171994 15 29 C 15 29.338674 15.240151 29.571253 15.34375 29.875 C 15.085086 29.680609 14.864373 29.440252 14.5625 29.3125 C 14.084 29.11 13.552 29 13 29 C 11.895999 29 10.880251 29.463499 10.15625 30.1875 C 9.4322496 30.9115 9.0000002 31.896 9 33 C 9 33.552001 9.1099998 34.084 9.3125 34.5625 C 9.9200004 35.998001 11.343999 37 13 37 C 13.076431 37 13.143373 36.972987 13.21875 36.96875 C 13.143409 37.313688 13 37.632572 13 38 C 13 38.689981 13.153132 39.339392 13.40625 39.9375 C 13.659368 40.535608 14.016263 41.078763 14.46875 41.53125 C 14.921237 41.983737 15.464392 42.340632 16.0625 42.59375 C 16.660608 42.846868 17.31002 43 18 43 L 26.5 43 L 36 43 C 37.655982 43 39.164012 42.335988 40.25 41.25 C 40.792994 40.707006 41.227503 40.061492 41.53125 39.34375 C 41.834996 38.626008 42 37.827991 42 37 C 42 36.403422 41.818616 35.856523 41.65625 35.3125 C 42.42187 34.768729 43 34.009898 43 33 C 43 31.343988 41.65601 29.999999 40 30 C 40 29.448 39.89 28.916 39.6875 28.4375 C 39.485 27.959 39.1745 27.5495 38.8125 27.1875 C 38.088499 26.4635 37.104 26 36 26 C 35.448 26 34.916 26.11 34.4375 26.3125 C 33.959 26.515 33.51825 26.8255 33.15625 27.1875 C 32.821295 27.522455 32.574773 27.907677 32.375 28.34375 C 32.081047 28.222219 31.837692 28 31.5 28 C 30.120009 28 29 29.120009 29 30.5 C 29 31.189995 29.266253 31.828753 29.71875 32.28125 C 30.171247 32.733747 30.810004 32.999999 31.5 33 C 31.545841 33 31.579764 32.97119 31.625 32.96875 C 31.161924 33.472163 30.739266 34.017032 30.46875 34.65625 C 30.286502 35.086895 30.265043 35.587521 30.1875 36.0625 C 30.021117 35.812164 29.89926 35.52426 29.6875 35.3125 C 28.873019 34.498019 27.741971 34.000001 26.5 34 C 25.879014 34 25.2883 34.115943 24.75 34.34375 C 24.435102 34.477014 24.179733 34.708148 23.90625 34.90625 C 23.919698 34.764659 24 34.645093 24 34.5 C 24 33.879017 23.884056 33.288298 23.65625 32.75 C 23.428444 32.211702 23.094739 31.719739 22.6875 31.3125 C 22.105337 30.730337 21.328761 30.381748 20.5 30.1875 C 20.688497 29.795047 21 29.464222 21 29 C 21 27.343988 19.656013 25.999999 18 26 z "
           inkscape:radius="1.5"
           sodipodi:type="inkscape:offset" />
        <path
           sodipodi:type="inkscape:offset"
           inkscape:radius="1.5"
           inkscape:original="M 18 26 C 17.171994 26 16.418004 26.331996 15.875 26.875 C 15.331996 27.418004 15 28.171994 15 29 C 15 29.338674 15.240151 29.571253 15.34375 29.875 C 15.085086 29.680609 14.864373 29.440252 14.5625 29.3125 C 14.084 29.11 13.552 29 13 29 C 11.895999 29 10.880251 29.463499 10.15625 30.1875 C 9.4322496 30.9115 9.0000002 31.896 9 33 C 9 33.552001 9.1099998 34.084 9.3125 34.5625 C 9.9200004 35.998001 11.343999 37 13 37 C 13.076431 37 13.143373 36.972987 13.21875 36.96875 C 13.143409 37.313688 13 37.632572 13 38 C 13 38.689981 13.153132 39.339392 13.40625 39.9375 C 13.659368 40.535608 14.016263 41.078763 14.46875 41.53125 C 14.921237 41.983737 15.464392 42.340632 16.0625 42.59375 C 16.660608 42.846868 17.31002 43 18 43 L 26.5 43 L 36 43 C 37.655982 43 39.164012 42.335988 40.25 41.25 C 40.792994 40.707006 41.227503 40.061492 41.53125 39.34375 C 41.834996 38.626008 42 37.827991 42 37 C 42 36.403422 41.818616 35.856523 41.65625 35.3125 C 42.42187 34.768729 43 34.009898 43 33 C 43 31.343988 41.65601 29.999999 40 30 C 40 29.448 39.89 28.916 39.6875 28.4375 C 39.485 27.959 39.1745 27.5495 38.8125 27.1875 C 38.088499 26.4635 37.104 26 36 26 C 35.448 26 34.916 26.11 34.4375 26.3125 C 33.959 26.515 33.51825 26.8255 33.15625 27.1875 C 32.821295 27.522455 32.574773 27.907677 32.375 28.34375 C 32.081047 28.222219 31.837692 28 31.5 28 C 30.120009 28 29 29.120009 29 30.5 C 29 31.189995 29.266253 31.828753 29.71875 32.28125 C 30.171247 32.733747 30.810004 32.999999 31.5 33 C 31.545841 33 31.579764 32.97119 31.625 32.96875 C 31.161924 33.472163 30.739266 34.017032 30.46875 34.65625 C 30.286502 35.086895 30.265043 35.587521 30.1875 36.0625 C 30.021117 35.812164 29.89926 35.52426 29.6875 35.3125 C 28.873019 34.498019 27.741971 34.000001 26.5 34 C 25.879014 34 25.2883 34.115943 24.75 34.34375 C 24.435102 34.477014 24.179733 34.708148 23.90625 34.90625 C 23.919698 34.764659 24 34.645093 24 34.5 C 24 33.879017 23.884056 33.288298 23.65625 32.75 C 23.428444 32.211702 23.094739 31.719739 22.6875 31.3125 C 22.105337 30.730337 21.328761 30.381748 20.5 30.1875 C 20.688497 29.795047 21 29.464222 21 29 C 21 27.343988 19.656013 25.999999 18 26 z "
           style="fill:url(#linearGradient4674);fill-opacity:1;stroke:#888a85;stroke-width:1;stroke-linecap:butt;stroke-linejoin:miter;stroke-miterlimit:10;stroke-dasharray:none;stroke-dashoffset:0;stroke-opacity:1"
           id="path1719"
           d="M 18,24.5 C 16.771036,24.5 15.630267,24.994733 14.8125,25.8125 C 14.308081,26.316919 13.968849,26.961686 13.75,27.65625 C 13.495451,27.620783 13.26159,27.5 13,27.5 C 11.476163,27.5 10.087432,28.131318 9.09375,29.125 C 8.100067,30.118682 7.5000003,31.50447 7.5,33 C 7.5,33.751276 7.6554631,34.489808 7.9375,35.15625 C 8.5697195,36.650161 9.9396188,37.557561 11.5,38.03125 C 11.504767,38.931006 11.714666,39.783174 12.03125,40.53125 C 12.354571,41.295245 12.808228,41.995728 13.40625,42.59375 C 14.004272,43.191772 14.704755,43.645429 15.46875,43.96875 C 16.225778,44.289123 17.088083,44.5 18,44.5 L 26.5,44.5 L 36,44.5 C 38.05696,44.5 39.951734,43.673266 41.3125,42.3125 C 41.992883,41.632117 42.528207,40.830799 42.90625,39.9375 C 43.289535,39.031811 43.5,38.027273 43.5,37 C 43.5,36.469362 43.353521,36.144818 43.25,35.75 C 43.925211,35.030031 44.5,34.160216 44.5,33 C 44.5,30.973345 43.10703,29.304669 41.25,28.75 C 41.179617,28.450467 41.18113,28.124067 41.0625,27.84375 C 40.765225,27.1413 40.33369,26.58369 39.875,26.125 C 38.896578,25.14658 37.523837,24.5 36,24.5 C 35.248725,24.5 34.510192,24.655463 33.84375,24.9375 C 33.162887,25.225639 32.582961,25.635789 32.09375,26.125 C 31.95347,26.26528 31.899864,26.442855 31.78125,26.59375 C 31.625341,26.564738 31.695236,26.5 31.5,26.5 C 29.308403,26.5 27.5,28.308403 27.5,30.5 C 27.5,31.381671 27.834035,32.189165 28.34375,32.875 C 27.754724,32.6841 27.146652,32.500001 26.5,32.5 C 26.036094,32.5 25.602151,32.679737 25.15625,32.78125 C 25.095899,32.578023 25.113948,32.351662 25.03125,32.15625 C 24.726377,31.435846 24.294634,30.794634 23.75,30.25 C 23.346027,29.846027 22.910156,29.523397 22.4375,29.28125 C 22.449702,29.172322 22.5,29.121198 22.5,29 C 22.5,26.532408 20.467595,24.499999 18,24.5 z "
           transform="translate(-2,1)" />
        <rect
           style="fill:#c4c5c2;fill-opacity:1;stroke:none;stroke-width:1;stroke-linecap:butt;stroke-linejoin:miter;stroke-miterlimit:2;stroke-dasharray:none;stroke-dashoffset:0;stroke-opacity:1"
           id="rect1653"
           width="18"
           height="5"
           x="16"
           y="39" />
        <g
           id="g2255">
          <path
             transform="matrix(1.207548,0,0,1.207548,-337.2268,562.4156)"
             d="M 291.6875 -437.59375 A 3.3125 3.3125 0 1 1  285.0625,-437.59375 A 3.3125 3.3125 0 1 1  291.6875 -437.59375 z"
             sodipodi:ry="3.3125"
             sodipodi:rx="3.3125"
             sodipodi:cy="-437.59375"
             sodipodi:cx="288.375"
             id="path1738"
             style="fill:#c4c5c2;fill-opacity:1;stroke:none;stroke-width:1;stroke-linecap:butt;stroke-linejoin:miter;stroke-miterlimit:2;stroke-dasharray:none;stroke-dashoffset:0;stroke-opacity:1"
             sodipodi:type="arc" />
          <path
             transform="matrix(1.207548,0,0,1.207548,-337.2269,562.4157)"
             d="M 291.6875 -437.59375 A 3.3125 3.3125 0 1 1  285.0625,-437.59375 A 3.3125 3.3125 0 1 1  291.6875 -437.59375 z"
             sodipodi:ry="3.3125"
             sodipodi:rx="3.3125"
             sodipodi:cy="-437.59375"
             sodipodi:cx="288.375"
             id="path1740"
             style="fill:url(#linearGradient4763);fill-opacity:1;stroke:none;stroke-width:1;stroke-linecap:butt;stroke-linejoin:miter;stroke-miterlimit:2;stroke-dasharray:none;stroke-dashoffset:0;stroke-opacity:1"
             sodipodi:type="arc" />
        </g>
        <g
           id="g2279">
          <path
             transform="matrix(1.207548,0,0,1.207548,-314.2268,559.4155)"
             d="M 291.6875 -437.59375 A 3.3125 3.3125 0 1 1  285.0625,-437.59375 A 3.3125 3.3125 0 1 1  291.6875 -437.59375 z"
             sodipodi:ry="3.3125"
             sodipodi:rx="3.3125"
             sodipodi:cy="-437.59375"
             sodipodi:cx="288.375"
             id="path1752"
             style="fill:#c4c5c2;fill-opacity:1;stroke:none;stroke-width:1;stroke-linecap:butt;stroke-linejoin:miter;stroke-miterlimit:2;stroke-dasharray:none;stroke-dashoffset:0;stroke-opacity:1"
             sodipodi:type="arc" />
          <path
             transform="matrix(1.207548,0,0,1.207548,-314.2269,559.4156)"
             d="M 291.6875 -437.59375 A 3.3125 3.3125 0 1 1  285.0625,-437.59375 A 3.3125 3.3125 0 1 1  291.6875 -437.59375 z"
             sodipodi:ry="3.3125"
             sodipodi:rx="3.3125"
             sodipodi:cy="-437.59375"
             sodipodi:cx="288.375"
             id="path1754"
             style="fill:url(#linearGradient4759);fill-opacity:1;stroke:none;stroke-width:1;stroke-linecap:butt;stroke-linejoin:miter;stroke-miterlimit:2;stroke-dasharray:none;stroke-dashoffset:0;stroke-opacity:1"
             sodipodi:type="arc" />
        </g>
        <g
           id="g2259">
          <path
             transform="matrix(0.905667,0,0,0.905667,-245.1716,426.3142)"
             d="M 291.6875 -437.59375 A 3.3125 3.3125 0 1 1  285.0625,-437.59375 A 3.3125 3.3125 0 1 1  291.6875 -437.59375 z"
             sodipodi:ry="3.3125"
             sodipodi:rx="3.3125"
             sodipodi:cy="-437.59375"
             sodipodi:cx="288.375"
             id="path1730"
             style="fill:#c4c5c2;fill-opacity:1;stroke:none;stroke-width:1;stroke-linecap:butt;stroke-linejoin:miter;stroke-miterlimit:2;stroke-dasharray:none;stroke-dashoffset:0;stroke-opacity:1"
             sodipodi:type="arc" />
          <path
             transform="matrix(0.905667,0,0,0.905667,-245.1717,426.3143)"
             d="M 291.6875 -437.59375 A 3.3125 3.3125 0 1 1  285.0625,-437.59375 A 3.3125 3.3125 0 1 1  291.6875 -437.59375 z"
             sodipodi:ry="3.3125"
             sodipodi:rx="3.3125"
             sodipodi:cy="-437.59375"
             sodipodi:cx="288.375"
             id="path1732"
             style="fill:url(#linearGradient4755);fill-opacity:1;stroke:none;stroke-width:1;stroke-linecap:butt;stroke-linejoin:miter;stroke-miterlimit:2;stroke-dasharray:none;stroke-dashoffset:0;stroke-opacity:1"
             sodipodi:type="arc" />
        </g>
        <g
           id="g2287">
          <path
             transform="matrix(0.754712,0,0,0.754712,-188.1401,361.7573)"
             d="M 291.6875 -437.59375 A 3.3125 3.3125 0 1 1  285.0625,-437.59375 A 3.3125 3.3125 0 1 1  291.6875 -437.59375 z"
             sodipodi:ry="3.3125"
             sodipodi:rx="3.3125"
             sodipodi:cy="-437.59375"
             sodipodi:cx="288.375"
             id="path1760"
             style="fill:#c4c5c2;fill-opacity:1;stroke:none;stroke-width:1;stroke-linecap:butt;stroke-linejoin:miter;stroke-miterlimit:2;stroke-dasharray:none;stroke-dashoffset:0;stroke-opacity:1"
             sodipodi:type="arc" />
          <path
             transform="matrix(0.754712,0,0,0.754712,-188.1401,361.7574)"
             d="M 291.6875 -437.59375 A 3.3125 3.3125 0 1 1  285.0625,-437.59375 A 3.3125 3.3125 0 1 1  291.6875 -437.59375 z"
             sodipodi:ry="3.3125"
             sodipodi:rx="3.3125"
             sodipodi:cy="-437.59375"
             sodipodi:cx="288.375"
             id="path1762"
             style="fill:url(#linearGradient4751);fill-opacity:1;stroke:none;stroke-width:1;stroke-linecap:butt;stroke-linejoin:miter;stroke-miterlimit:2;stroke-dasharray:none;stroke-dashoffset:0;stroke-opacity:1"
             sodipodi:type="arc" />
        </g>
        <g
           id="g2283">
          <path
             transform="matrix(0.905667,0,0,0.905667,-223.1717,430.3142)"
             d="M 291.6875 -437.59375 A 3.3125 3.3125 0 1 1  285.0625,-437.59375 A 3.3125 3.3125 0 1 1  291.6875 -437.59375 z"
             sodipodi:ry="3.3125"
             sodipodi:rx="3.3125"
             sodipodi:cy="-437.59375"
             sodipodi:cx="288.375"
             id="path1776"
             style="fill:#c4c5c2;fill-opacity:1;stroke:none;stroke-width:1;stroke-linecap:butt;stroke-linejoin:miter;stroke-miterlimit:2;stroke-dasharray:none;stroke-dashoffset:0;stroke-opacity:1"
             sodipodi:type="arc" />
          <path
             transform="matrix(0.905667,0,0,0.905667,-223.1718,430.3143)"
             d="M 291.6875 -437.59375 A 3.3125 3.3125 0 1 1  285.0625,-437.59375 A 3.3125 3.3125 0 1 1  291.6875 -437.59375 z"
             sodipodi:ry="3.3125"
             sodipodi:rx="3.3125"
             sodipodi:cy="-437.59375"
             sodipodi:cx="288.375"
             id="path1778"
             style="fill:url(#linearGradient4747);fill-opacity:1;stroke:none;stroke-width:1;stroke-linecap:butt;stroke-linejoin:miter;stroke-miterlimit:2;stroke-dasharray:none;stroke-dashoffset:0;stroke-opacity:1"
             sodipodi:type="arc" />
        </g>
        <g
           id="g2275">
          <path
             transform="matrix(1.811301,0,0,1.811301,-488.334,830.6139)"
             d="M 291.6875 -437.59375 A 3.3125 3.3125 0 1 1  285.0625,-437.59375 A 3.3125 3.3125 0 1 1  291.6875 -437.59375 z"
             sodipodi:ry="3.3125"
             sodipodi:rx="3.3125"
             sodipodi:cy="-437.59375"
             sodipodi:cx="288.375"
             id="path1768"
             style="fill:#c4c5c2;fill-opacity:1;stroke:none;stroke-width:1;stroke-linecap:butt;stroke-linejoin:miter;stroke-miterlimit:2;stroke-dasharray:none;stroke-dashoffset:0;stroke-opacity:1"
             sodipodi:type="arc" />
          <path
             transform="matrix(1.811301,0,0,1.811301,-488.3341,830.6141)"
             d="M 291.6875 -437.59375 A 3.3125 3.3125 0 1 1  285.0625,-437.59375 A 3.3125 3.3125 0 1 1  291.6875 -437.59375 z"
             sodipodi:ry="3.3125"
             sodipodi:rx="3.3125"
             sodipodi:cy="-437.59375"
             sodipodi:cx="288.375"
             id="path1770"
             style="fill:url(#linearGradient4743);fill-opacity:1;stroke:none;stroke-width:1;stroke-linecap:butt;stroke-linejoin:miter;stroke-miterlimit:2;stroke-dasharray:none;stroke-dashoffset:0;stroke-opacity:1"
             sodipodi:type="arc" />
        </g>
        <g
           id="g2267">
          <path
             transform="matrix(1.358454,0,0,1.358454,-374.244,629.9506)"
             d="M 291.6875 -437.59375 A 3.3125 3.3125 0 1 1  285.0625,-437.59375 A 3.3125 3.3125 0 1 1  291.6875 -437.59375 z"
             sodipodi:ry="3.3125"
             sodipodi:rx="3.3125"
             sodipodi:cy="-437.59375"
             sodipodi:cx="288.375"
             id="path1784"
             style="fill:#c4c5c2;fill-opacity:1;stroke:none;stroke-width:1;stroke-linecap:butt;stroke-linejoin:miter;stroke-miterlimit:2;stroke-dasharray:none;stroke-dashoffset:0;stroke-opacity:1"
             sodipodi:type="arc" />
          <path
             transform="matrix(1.358454,0,0,1.358454,-374.2441,629.9507)"
             d="M 291.6875 -437.59375 A 3.3125 3.3125 0 1 1  285.0625,-437.59375 A 3.3125 3.3125 0 1 1  291.6875 -437.59375 z"
             sodipodi:ry="3.3125"
             sodipodi:rx="3.3125"
             sodipodi:cy="-437.59375"
             sodipodi:cx="288.375"
             id="path1786"
             style="fill:url(#linearGradient4739);fill-opacity:1;stroke:none;stroke-width:1;stroke-linecap:butt;stroke-linejoin:miter;stroke-miterlimit:2;stroke-dasharray:none;stroke-dashoffset:0;stroke-opacity:1"
             sodipodi:type="arc" />
        </g>
        <g
           id="g2263">
          <path
             transform="matrix(1.509391,0,0,1.509391,-419.2705,699.4997)"
             d="M 291.6875 -437.59375 A 3.3125 3.3125 0 1 1  285.0625,-437.59375 A 3.3125 3.3125 0 1 1  291.6875 -437.59375 z"
             sodipodi:ry="3.3125"
             sodipodi:rx="3.3125"
             sodipodi:cy="-437.59375"
             sodipodi:cx="288.375"
             id="path1800"
             style="fill:#c4c5c2;fill-opacity:1;stroke:none;stroke-width:1;stroke-linecap:butt;stroke-linejoin:miter;stroke-miterlimit:2;stroke-dasharray:none;stroke-dashoffset:0;stroke-opacity:1"
             sodipodi:type="arc" />
          <path
             transform="matrix(1.509391,0,0,1.509391,-419.2706,699.4999)"
             d="M 291.6875 -437.59375 A 3.3125 3.3125 0 1 1  285.0625,-437.59375 A 3.3125 3.3125 0 1 1  291.6875 -437.59375 z"
             sodipodi:ry="3.3125"
             sodipodi:rx="3.3125"
             sodipodi:cy="-437.59375"
             sodipodi:cx="288.375"
             id="path1802"
             style="fill:url(#linearGradient4735);fill-opacity:1;stroke:none;stroke-width:1;stroke-linecap:butt;stroke-linejoin:miter;stroke-miterlimit:2;stroke-dasharray:none;stroke-dashoffset:0;stroke-opacity:1"
             sodipodi:type="arc" />
        </g>
        <g
           id="g2271">
          <path
             transform="matrix(1.358459,0,0,1.358459,-367.2456,633.9532)"
             d="M 291.6875 -437.59375 A 3.3125 3.3125 0 1 1  285.0625,-437.59375 A 3.3125 3.3125 0 1 1  291.6875 -437.59375 z"
             sodipodi:ry="3.3125"
             sodipodi:rx="3.3125"
             sodipodi:cy="-437.59375"
             sodipodi:cx="288.375"
             id="path1792"
             style="fill:#c4c5c2;fill-opacity:1;stroke:none;stroke-width:1;stroke-linecap:butt;stroke-linejoin:miter;stroke-miterlimit:2;stroke-dasharray:none;stroke-dashoffset:0;stroke-opacity:1"
             sodipodi:type="arc" />
          <path
             transform="matrix(1.358459,0,0,1.358459,-367.2457,633.9534)"
             d="M 291.6875 -437.59375 A 3.3125 3.3125 0 1 1  285.0625,-437.59375 A 3.3125 3.3125 0 1 1  291.6875 -437.59375 z"
             sodipodi:ry="3.3125"
             sodipodi:rx="3.3125"
             sodipodi:cy="-437.59375"
             sodipodi:cx="288.375"
             id="path1794"
             style="fill:url(#linearGradient4731);fill-opacity:1;stroke:none;stroke-width:1;stroke-linecap:butt;stroke-linejoin:miter;stroke-miterlimit:2;stroke-dasharray:none;stroke-dashoffset:0;stroke-opacity:1"
             sodipodi:type="arc" />
        </g>
      </g>
    </g>
  </g>
</svg>
